<?xml version="1.0" encoding="UTF-8"?> <svg xmlns="http://www.w3.org/2000/svg" width="100" height="100" viewBox="0 0 100 100" fill="none"> <g clip-path="url(#clip0_17_148)"> <path d="M50 100.2C77.6142 100.2 100 77.8144 100 50.2002C100 22.586 77.6142 0.200195 50 0.200195C22.3858 0.200195 0 22.586 0 50.2002C0 77.8144 22.3858 100.2 50 100.2Z" fill="#173055"></path> <path d="M76 50C76 64.3771 64.5657 76 50.5 76C36.4343 76 25 64.3771 25 50C25 35.6229 36.4343 24 50.5 24C64.5657 24 76 35.6229 76 50Z" stroke="white" stroke-width="2"></path> <path d="M50 34L50 52" stroke="white" stroke-width="2" stroke-linecap="round"></path> <path d="M59.798 57.6567L50 51.9999" stroke="white" stroke-width="2" stroke-linecap="round"></path> </g> <defs> <clipPath id="clip0_17_148"> <rect width="100" height="100" fill="white"></rect> </clipPath> </defs> </svg> 