<?xml version="1.0" encoding="UTF-8"?> <svg xmlns="http://www.w3.org/2000/svg" width="100" height="100" viewBox="0 0 100 100" fill="none"> <g clip-path="url(#clip0_17_111)"> <path d="M50 100.2C77.6142 100.2 100 77.8144 100 50.2002C100 22.586 77.6142 0.200195 50 0.200195C22.3858 0.200195 0 22.586 0 50.2002C0 77.8144 22.3858 100.2 50 100.2Z" fill="#173055"></path> <path d="M26.4993 59.5065L26.4835 59.0975L26.1855 58.8169C22.8731 55.6985 21 51.964 21 48C21 42.9155 24.0913 38.19 29.3415 34.6899C34.5847 31.1945 41.8856 29 50 29C58.1144 29 65.4153 31.1945 70.6585 34.6899C75.9087 38.19 79 42.9155 79 48C79 53.0845 75.9087 57.81 70.6585 61.3101C65.4153 64.8055 58.1144 67 50 67C47.8164 67 45.6901 66.841 43.6457 66.54L43.4333 66.5087L43.2268 66.5673L26.9502 71.1905L26.4993 59.5065Z" stroke="white" stroke-width="2"></path> <path d="M37 42H66" stroke="white" stroke-width="2" stroke-linecap="round" stroke-linejoin="round"></path> <path d="M37 48H60.8214" stroke="white" stroke-width="2" stroke-linecap="round" stroke-linejoin="round"></path> <path d="M37 54H55.6429" stroke="white" stroke-width="2" stroke-linecap="round" stroke-linejoin="round"></path> </g> <defs> <clipPath id="clip0_17_111"> <rect width="100" height="100" fill="white"></rect> </clipPath> </defs> </svg> 