<?xml version="1.0" encoding="UTF-8"?> <svg xmlns="http://www.w3.org/2000/svg" width="100" height="100" viewBox="0 0 100 100" fill="none"> <g clip-path="url(#clip0_17_36)"> <path d="M50 100C77.6142 100 100 77.6142 100 50C100 22.3858 77.6142 0 50 0C22.3858 0 0 22.3858 0 50C0 77.6142 22.3858 100 50 100Z" fill="#173055"></path> <mask id="path-2-inside-1_17_36" fill="white"> <path d="M20.6667 60.0833C20.6667 53.4099 26.0766 48 32.75 48V48C39.4235 48 44.8334 53.4099 44.8334 60.0833V67.0909C44.8334 67.593 44.4263 68 43.9243 68H24.5128C22.3887 68 20.6667 66.278 20.6667 64.1538V60.0833Z"></path> </mask> <path d="M20.6667 60.0833C20.6667 53.4099 26.0766 48 32.75 48V48C39.4235 48 44.8334 53.4099 44.8334 60.0833V67.0909C44.8334 67.593 44.4263 68 43.9243 68H24.5128C22.3887 68 20.6667 66.278 20.6667 64.1538V60.0833Z" stroke="white" stroke-width="4" mask="url(#path-2-inside-1_17_36)"></path> <mask id="path-3-inside-2_17_36" fill="white"> <path d="M54.8333 60.0833C54.8333 53.4099 60.2432 48 66.9166 48V48C73.5901 48 79 53.4099 79 60.0833V64.1538C79 66.278 77.278 68 75.1538 68H55.7424C55.2403 68 54.8333 67.593 54.8333 67.0909V60.0833Z"></path> </mask> <path d="M54.8333 60.0833C54.8333 53.4099 60.2432 48 66.9166 48V48C73.5901 48 79 53.4099 79 60.0833V64.1538C79 66.278 77.278 68 75.1538 68H55.7424C55.2403 68 54.8333 67.593 54.8333 67.0909V60.0833Z" stroke="white" stroke-width="4" mask="url(#path-3-inside-2_17_36)"></path> <mask id="path-4-inside-3_17_36" fill="white"> <path d="M38.1667 55.9163C38.1667 49.2429 43.5766 43.833 50.25 43.833V43.833C56.9235 43.833 62.3334 49.2429 62.3334 55.9163V66.9997C62.3334 67.552 61.8856 67.9997 61.3334 67.9997H39.1667C38.6144 67.9997 38.1667 67.552 38.1667 66.9997V55.9163Z"></path> </mask> <path d="M38.1667 55.9163C38.1667 49.2429 43.5766 43.833 50.25 43.833V43.833C56.9235 43.833 62.3334 49.2429 62.3334 55.9163V66.9997C62.3334 67.552 61.8856 67.9997 61.3334 67.9997H39.1667C38.6144 67.9997 38.1667 67.552 38.1667 66.9997V55.9163Z" fill="#173055" stroke="white" stroke-width="4" mask="url(#path-4-inside-3_17_36)"></path> <circle cx="50.25" cy="35.0833" r="6.08333" stroke="white" stroke-width="2"></circle> <circle cx="67.3334" cy="39.6663" r="4.83333" stroke="white" stroke-width="2"></circle> <circle cx="33.1666" cy="39.6663" r="4.83333" stroke="white" stroke-width="2"></circle> </g> <defs> <clipPath id="clip0_17_36"> <rect width="100" height="100" fill="white"></rect> </clipPath> </defs> </svg>
