<?xml version="1.0" encoding="utf-8"?><svg viewBox="0 0 100 100" xmlns="http://www.w3.org/2000/svg" xmlns:xlink="http://www.w3.org/1999/xlink"><style>:root>svg{display:none}:root>svg:target{display:block}</style><svg viewBox="0 0 100 100" id="doing1" xmlns="http://www.w3.org/2000/svg"><g clip-path="url(#aa)"><path d="M50 100c27.614 0 50-22.386 50-50S77.614 0 50 0 0 22.386 0 50s22.386 50 50 50z"/><mask id="aa"><path d="M20.667 60.083C20.667 53.41 26.077 48 32.75 48s12.083 5.41 12.083 12.083v7.008a.91.91 0 01-.909.909H24.513a3.846 3.846 0 01-3.846-3.846v-4.07z"/></mask><path d="M20.667 60.083C20.667 53.41 26.077 48 32.75 48s12.083 5.41 12.083 12.083v7.008a.91.91 0 01-.909.909H24.513a3.846 3.846 0 01-3.846-3.846v-4.07z" mask="url(#aa)"/><mask id="ab"><path d="M54.833 60.083C54.833 53.41 60.243 48 66.917 48 73.59 48 79 53.41 79 60.083v4.07A3.846 3.846 0 0175.154 68H55.742a.91.91 0 01-.909-.91v-7.007z"/></mask><path d="M54.833 60.083C54.833 53.41 60.243 48 66.917 48 73.59 48 79 53.41 79 60.083v4.07A3.846 3.846 0 0175.154 68H55.742a.91.91 0 01-.909-.91v-7.007z" mask="url(#ab)"/><mask id="ac"><path d="M38.167 55.916c0-6.673 5.41-12.083 12.083-12.083s12.083 5.41 12.083 12.083V67a1 1 0 01-1 1H39.167a1 1 0 01-1-1V55.916z"/></mask><path d="M38.167 55.916c0-6.673 5.41-12.083 12.083-12.083s12.083 5.41 12.083 12.083V67a1 1 0 01-1 1H39.167a1 1 0 01-1-1V55.916z" mask="url(#ac)"/><circle cx="50.25" cy="35.083" r="6.083"/><circle cx="67.333" cy="39.666" r="4.833"/><circle cx="33.167" cy="39.666" r="4.833"/></g><defs><clipPath id="aa"><path d="M0 0h100v100H0z"/></clipPath></defs></svg><svg viewBox="0 0 100 100" id="doing2" xmlns="http://www.w3.org/2000/svg"><g clip-path="url(#ba)"><path d="M50 100.2c27.614 0 50-22.386 50-50S77.614.2 50 .2 0 22.586 0 50.2s22.386 50 50 50z"/><path d="M26.5 59.507l-.017-.41-.297-.28C22.873 55.699 21 51.964 21 48c0-5.084 3.091-9.81 8.341-13.31C34.585 31.195 41.886 29 50 29c8.114 0 15.415 2.195 20.659 5.69C75.909 38.19 79 42.916 79 48s-3.091 9.81-8.341 13.31C65.415 64.805 58.114 67 50 67c-2.184 0-4.31-.159-6.354-.46l-.213-.031-.206.058-16.277 4.624-.45-11.684zM37 42h29m-29 6h23.821M37 54h18.643"/></g><defs><clipPath id="ba"><path d="M0 0h100v100H0z"/></clipPath></defs></svg><svg viewBox="0 0 100 100" id="doing3" xmlns="http://www.w3.org/2000/svg"><g clip-path="url(#ca)"><path d="M50 100.2c27.614 0 50-22.386 50-50S77.614.2 50 .2 0 22.586 0 50.2s22.386 50 50 50z"/><path d="M74 50c0 13.274-10.54 24-23.5 24S27 63.274 27 50s10.54-24 23.5-24S74 36.726 74 50z"/><path d="M50 42c6.54 0 12.415.996 16.62 2.572 2.105.79 3.74 1.706 4.83 2.673C72.543 48.213 73 49.146 73 50c0 .854-.458 1.787-1.55 2.755-1.09.967-2.725 1.883-4.83 2.673C62.414 57.004 56.54 58 50 58c-6.54 0-12.415-.996-16.62-2.572-2.105-.79-3.74-1.706-4.83-2.673C27.457 51.787 27 50.854 27 50c0-.854.458-1.787 1.55-2.755 1.09-.967 2.725-1.883 4.83-2.673C37.586 42.996 43.46 42 50 42z"/><mask id="ca"><ellipse cx="50" cy="50" rx="1" ry="25"/></mask><path d="M49 50c0 6.886-.112 13.108-.291 17.598-.09 2.25-.196 4.038-.31 5.25a14.432 14.432 0 01-.16 1.26c-.026.133-.032.117.002.03.013-.033.081-.208.24-.41A1.937 1.937 0 0150 73v4c.925 0 1.457-.585 1.621-.794.194-.244.295-.484.342-.602a4.23 4.23 0 00.201-.728 17.71 17.71 0 00.216-1.652c.125-1.32.235-3.193.325-5.466C52.889 63.199 53 56.92 53 50h-4zm1 23c.89 0 1.388.563 1.519.728.159.202.227.377.24.41.034.087.028.103.002-.03a14.432 14.432 0 01-.16-1.26c-.114-1.212-.22-3-.31-5.25C51.111 63.108 51 56.886 51 50h-4c0 6.921.112 13.2.294 17.758.091 2.273.2 4.146.326 5.466.061.65.131 1.22.216 1.652.039.2.1.47.2.728.047.118.15.358.343.602.164.209.696.794 1.621.794v-4zm1-23c0-6.886.112-13.108.291-17.598.09-2.25.196-4.038.31-5.25.06-.615.115-1.027.16-1.26.026-.133.032-.117-.002-.03-.013.033-.081.208-.24.41A1.937 1.937 0 0150 27v-4c-.925 0-1.457.585-1.621.794a2.377 2.377 0 00-.342.602 4.23 4.23 0 00-.201.728 18.006 18.006 0 00-.216 1.652c-.125 1.32-.235 3.193-.325 5.466C47.111 36.801 47 43.08 47 50h4zm-1-23c-.89 0-1.388-.563-1.519-.729-.159-.2-.227-.376-.24-.409-.034-.087-.028-.103-.002.03.045.233.1.645.16 1.26.114 1.212.22 3 .31 5.25.18 4.49.291 10.712.291 17.598h4c0-6.921-.112-13.2-.294-17.758-.091-2.273-.2-4.146-.326-5.466a17.62 17.62 0 00-.216-1.652c-.039-.2-.1-.47-.2-.728a2.377 2.377 0 00-.343-.602A2.063 2.063 0 0050 23v4z" mask="url(#ca)"/><path d="M64 50c0 6.754-1.645 12.82-4.25 17.163C57.13 71.527 53.652 74 50 74c-3.653 0-7.13-2.473-9.75-6.837C37.646 62.82 36 56.753 36 50c0-6.754 1.645-12.82 4.25-17.163C42.87 28.473 46.348 26 50 26c3.653 0 7.13 2.473 9.75 6.837C62.354 37.18 64 43.247 64 50z"/></g><defs><clipPath id="ca"><path d="M0 0h100v100H0z"/></clipPath></defs></svg><svg viewBox="0 0 100 100" id="doing4" xmlns="http://www.w3.org/2000/svg"><g clip-path="url(#da)"><path d="M50 100.2c27.614 0 50-22.386 50-50S77.614.2 50 .2 0 22.586 0 50.2s22.386 50 50 50z"/><path d="M76 50c0 14.377-11.434 26-25.5 26S25 64.377 25 50s11.434-26 25.5-26S76 35.623 76 50zM50 34v18m9.798 5.657L50 52"/></g><defs><clipPath id="da"><path d="M0 0h100v100H0z"/></clipPath></defs></svg></svg>