<?xml version="1.0" encoding="UTF-8"?> <svg xmlns="http://www.w3.org/2000/svg" width="100" height="100" viewBox="0 0 100 100" fill="none"> <g clip-path="url(#clip0_17_74)"> <path d="M50 100.2C77.6142 100.2 100 77.8144 100 50.2002C100 22.586 77.6142 0.200195 50 0.200195C22.3858 0.200195 0 22.586 0 50.2002C0 77.8144 22.3858 100.2 50 100.2Z" fill="#173055"></path> <path d="M74 50C74 63.274 63.4597 74 50.5 74C37.5403 74 27 63.274 27 50C27 36.726 37.5403 26 50.5 26C63.4597 26 74 36.726 74 50Z" stroke="white" stroke-width="2"></path> <path d="M50 42C56.5393 42 62.4149 42.9957 66.6194 44.5724C68.7254 45.3621 70.3602 46.2784 71.4506 47.2451C72.5421 48.2128 73 49.146 73 50C73 50.854 72.5421 51.7872 71.4506 52.7549C70.3602 53.7216 68.7254 54.6379 66.6194 55.4276C62.4149 57.0043 56.5393 58 50 58C43.4607 58 37.5851 57.0043 33.3806 55.4276C31.2746 54.6379 29.6398 53.7216 28.5494 52.7549C27.4579 51.7872 27 50.854 27 50C27 49.146 27.4579 48.2128 28.5494 47.2451C29.6398 46.2784 31.2746 45.3621 33.3806 44.5724C37.5851 42.9957 43.4607 42 50 42Z" stroke="white" stroke-width="2"></path> <mask id="path-4-inside-1_17_74" fill="white"> <ellipse cx="50" cy="50" rx="1" ry="25"></ellipse> </mask> <path d="M49 50C49 56.8857 48.8883 63.1078 48.7087 67.5977C48.6187 69.8481 48.5126 71.6362 48.3981 72.8471C48.3399 73.4626 48.2844 73.8747 48.2387 74.1084C48.2128 74.2408 48.2071 74.2249 48.2414 74.138C48.2543 74.1051 48.3225 73.9299 48.4814 73.7285C48.612 73.5631 49.1093 73 50 73V77C50.9252 77 51.4569 76.415 51.6215 76.2064C51.8145 75.9618 51.9165 75.7221 51.9631 75.6039C52.0646 75.3462 52.1252 75.0764 52.1644 74.8758C52.2489 74.4434 52.3189 73.8732 52.3804 73.2237C52.5051 71.9044 52.6146 70.0314 52.7055 67.7576C52.8878 63.1993 53 56.9214 53 50H49ZM50 73C50.8907 73 51.388 73.5631 51.5186 73.7285C51.6775 73.9299 51.7457 74.1051 51.7586 74.138C51.7929 74.2249 51.7872 74.2408 51.7613 74.1084C51.7156 73.8747 51.6601 73.4626 51.6019 72.8471C51.4874 71.6362 51.3813 69.8481 51.2913 67.5977C51.1117 63.1078 51 56.8857 51 50H47C47 56.9214 47.1122 63.1993 47.2945 67.7576C47.3854 70.0314 47.4949 71.9044 47.6196 73.2237C47.6811 73.8732 47.7511 74.4434 47.8356 74.8758C47.8748 75.0764 47.9354 75.3462 48.0369 75.6039C48.0835 75.7221 48.1855 75.9618 48.3785 76.2064C48.5431 76.415 49.0748 77 50 77V73ZM51 50C51 43.1143 51.1117 36.8922 51.2913 32.4023C51.3813 30.1519 51.4874 28.3638 51.6019 27.1529C51.6601 26.5374 51.7156 26.1253 51.7613 25.8916C51.7872 25.7592 51.7929 25.7751 51.7586 25.862C51.7457 25.8949 51.6775 26.0701 51.5186 26.2715C51.388 26.4369 50.8907 27 50 27V23C49.0748 23 48.5431 23.585 48.3785 23.7936C48.1855 24.0382 48.0835 24.2779 48.0369 24.3961C47.9354 24.6538 47.8748 24.9236 47.8356 25.1242C47.7511 25.5566 47.6811 26.1268 47.6196 26.7763C47.4949 28.0956 47.3854 29.9686 47.2945 32.2424C47.1122 36.8007 47 43.0786 47 50H51ZM50 27C49.1093 27 48.612 26.4369 48.4814 26.2715C48.3225 26.0701 48.2543 25.8949 48.2414 25.862C48.2071 25.7751 48.2128 25.7592 48.2387 25.8916C48.2844 26.1253 48.3399 26.5374 48.3981 27.1529C48.5126 28.3638 48.6187 30.1519 48.7087 32.4023C48.8883 36.8922 49 43.1143 49 50H53C53 43.0786 52.8878 36.8007 52.7055 32.2424C52.6146 29.9686 52.5051 28.0956 52.3804 26.7763C52.3189 26.1268 52.2489 25.5566 52.1644 25.1242C52.1252 24.9236 52.0646 24.6538 51.9631 24.3961C51.9165 24.2779 51.8145 24.0382 51.6215 23.7936C51.4569 23.585 50.9252 23 50 23V27Z" fill="white" mask="url(#path-4-inside-1_17_74)"></path> <path d="M64 50C64 56.7535 62.3555 62.8192 59.7491 67.1632C57.1308 71.5271 53.6529 74 50 74C46.3471 74 42.8692 71.5271 40.2509 67.1632C37.6445 62.8192 36 56.7535 36 50C36 43.2465 37.6445 37.1808 40.2509 32.8368C42.8692 28.4729 46.3471 26 50 26C53.6529 26 57.1308 28.4729 59.7491 32.8368C62.3555 37.1808 64 43.2465 64 50Z" stroke="white" stroke-width="2"></path> </g> <defs> <clipPath id="clip0_17_74"> <rect width="100" height="100" fill="white"></rect> </clipPath> </defs> </svg>
