<?xml version="1.0" encoding="utf-8"?><svg viewBox="0 0 100 100" xmlns="http://www.w3.org/2000/svg" xmlns:xlink="http://www.w3.org/1999/xlink"><style>:root>svg{display:none}:root>svg:target{display:block}</style><svg viewBox="0 0 48 48" id="VK" xmlns="http://www.w3.org/2000/svg"><path fill-rule="evenodd" clip-rule="evenodd" d="M16.632 0h14.736C44.816 0 48 3.184 48 16.632v14.736C48 44.816 44.816 48 31.368 48H16.632C3.184 48 0 44.816 0 31.368V16.632C0 3.184 3.184 0 16.632 0z"/><path fill-rule="evenodd" clip-rule="evenodd" d="M39.232 15.321c.237-.745 0-1.287-1.05-1.287h-3.489c-.88 0-1.287.474-1.524.982 0 0-1.796 4.336-4.302 7.148-.813.813-1.186 1.084-1.626 1.084-.238 0-.542-.271-.542-1.017v-6.944c0-.88-.271-1.287-1.017-1.287h-5.487c-.542 0-.88.406-.88.813 0 .847 1.252 1.05 1.388 3.421v5.15c0 1.117-.203 1.32-.644 1.32-1.185 0-4.065-4.37-5.792-9.349-.339-.982-.678-1.355-1.558-1.355H9.186C8.169 14 8 14.474 8 14.982c0 .915 1.186 5.522 5.521 11.62 2.88 4.166 6.979 6.402 10.671 6.402 2.236 0 2.507-.509 2.507-1.355v-3.15c0-1.017.203-1.186.914-1.186.508 0 1.423.27 3.49 2.27 2.37 2.37 2.777 3.454 4.098 3.454h3.49c1.015 0 1.49-.508 1.219-1.49-.305-.982-1.457-2.405-2.947-4.099-.813-.948-2.033-1.998-2.406-2.507-.508-.677-.372-.948 0-1.558-.033 0 4.235-6.03 4.675-8.062z"/></svg><svg viewBox="0 0 48 48" id="VK_black" xmlns="http://www.w3.org/2000/svg"><path fill-rule="evenodd" clip-rule="evenodd" d="M0 24C0 10.745 10.745 0 24 0s24 10.745 24 24-10.745 24-24 24S0 37.255 0 24zm25.256 7.876s.462-.05.698-.3c.217-.228.21-.66.21-.66s-.03-2.014.923-2.312c.94-.292 2.145 1.948 3.425 2.81.966.651 1.7.509 1.7.509l3.42-.047s1.788-.108.94-1.488c-.07-.113-.495-1.022-2.542-2.887-2.145-1.953-1.857-1.638.725-5.016 1.573-2.058 2.201-3.314 2.005-3.85-.187-.515-1.344-.378-1.344-.378l-3.849.023s-.285-.038-.497.086c-.206.122-.34.406-.34.406s-.609 1.591-1.422 2.946c-1.714 2.856-2.398 3.007-2.679 2.83-.652-.414-.49-1.661-.49-2.547 0-2.77.429-3.924-.832-4.222-.418-.1-.726-.165-1.797-.176-1.373-.013-2.536.005-3.194.32-.438.211-.776.68-.57.708.254.033.83.152 1.136.56.394.527.38 1.71.38 1.71s.227 3.26-.53 3.663c-.517.278-1.229-.288-2.758-2.88-.782-1.328-1.373-2.795-1.373-2.795s-.114-.274-.318-.422c-.247-.178-.591-.233-.591-.233l-3.657.023s-.55.015-.752.25c-.179.207-.013.638-.013.638s2.863 6.577 6.106 9.892c2.974 3.038 6.35 2.84 6.35 2.84h1.53z"/></svg><svg viewBox="0 0 100 100" id="doing1" xmlns="http://www.w3.org/2000/svg"><g clip-path="url(#ca)"><path d="M50 100c27.614 0 50-22.386 50-50S77.614 0 50 0 0 22.386 0 50s22.386 50 50 50z"/><mask id="ca"><path d="M20.667 60.083C20.667 53.41 26.077 48 32.75 48s12.083 5.41 12.083 12.083v7.008a.91.91 0 01-.909.909H24.513a3.846 3.846 0 01-3.846-3.846v-4.07z"/></mask><path d="M20.667 60.083C20.667 53.41 26.077 48 32.75 48s12.083 5.41 12.083 12.083v7.008a.91.91 0 01-.909.909H24.513a3.846 3.846 0 01-3.846-3.846v-4.07z" mask="url(#ca)"/><mask id="cb"><path d="M54.833 60.083C54.833 53.41 60.243 48 66.917 48 73.59 48 79 53.41 79 60.083v4.07A3.846 3.846 0 0175.154 68H55.742a.91.91 0 01-.909-.91v-7.007z"/></mask><path d="M54.833 60.083C54.833 53.41 60.243 48 66.917 48 73.59 48 79 53.41 79 60.083v4.07A3.846 3.846 0 0175.154 68H55.742a.91.91 0 01-.909-.91v-7.007z" mask="url(#cb)"/><mask id="cc"><path d="M38.167 55.916c0-6.673 5.41-12.083 12.083-12.083s12.083 5.41 12.083 12.083V67a1 1 0 01-1 1H39.167a1 1 0 01-1-1V55.916z"/></mask><path d="M38.167 55.916c0-6.673 5.41-12.083 12.083-12.083s12.083 5.41 12.083 12.083V67a1 1 0 01-1 1H39.167a1 1 0 01-1-1V55.916z" mask="url(#cc)"/><circle cx="50.25" cy="35.083" r="6.083"/><circle cx="67.333" cy="39.666" r="4.833"/><circle cx="33.167" cy="39.666" r="4.833"/></g><defs><clipPath id="ca"><path d="M0 0h100v100H0z"/></clipPath></defs></svg><svg viewBox="0 0 100 100" id="doing2" xmlns="http://www.w3.org/2000/svg"><g clip-path="url(#da)"><path d="M50 100.2c27.614 0 50-22.386 50-50S77.614.2 50 .2 0 22.586 0 50.2s22.386 50 50 50z"/><path d="M26.5 59.507l-.017-.41-.297-.28C22.873 55.699 21 51.964 21 48c0-5.084 3.091-9.81 8.341-13.31C34.585 31.195 41.886 29 50 29c8.114 0 15.415 2.195 20.659 5.69C75.909 38.19 79 42.916 79 48s-3.091 9.81-8.341 13.31C65.415 64.805 58.114 67 50 67c-2.184 0-4.31-.159-6.354-.46l-.213-.031-.206.058-16.277 4.624-.45-11.684zM37 42h29m-29 6h23.821M37 54h18.643"/></g><defs><clipPath id="da"><path d="M0 0h100v100H0z"/></clipPath></defs></svg><svg viewBox="0 0 100 100" id="doing3" xmlns="http://www.w3.org/2000/svg"><g clip-path="url(#ea)"><path d="M50 100.2c27.614 0 50-22.386 50-50S77.614.2 50 .2 0 22.586 0 50.2s22.386 50 50 50z"/><path d="M74 50c0 13.274-10.54 24-23.5 24S27 63.274 27 50s10.54-24 23.5-24S74 36.726 74 50z"/><path d="M50 42c6.54 0 12.415.996 16.62 2.572 2.105.79 3.74 1.706 4.83 2.673C72.543 48.213 73 49.146 73 50c0 .854-.458 1.787-1.55 2.755-1.09.967-2.725 1.883-4.83 2.673C62.414 57.004 56.54 58 50 58c-6.54 0-12.415-.996-16.62-2.572-2.105-.79-3.74-1.706-4.83-2.673C27.457 51.787 27 50.854 27 50c0-.854.458-1.787 1.55-2.755 1.09-.967 2.725-1.883 4.83-2.673C37.586 42.996 43.46 42 50 42z"/><mask id="ea"><ellipse cx="50" cy="50" rx="1" ry="25"/></mask><path d="M49 50c0 6.886-.112 13.108-.291 17.598-.09 2.25-.196 4.038-.31 5.25a14.432 14.432 0 01-.16 1.26c-.026.133-.032.117.002.03.013-.033.081-.208.24-.41A1.937 1.937 0 0150 73v4c.925 0 1.457-.585 1.621-.794.194-.244.295-.484.342-.602a4.23 4.23 0 00.201-.728 17.71 17.71 0 00.216-1.652c.125-1.32.235-3.193.325-5.466C52.889 63.199 53 56.92 53 50h-4zm1 23c.89 0 1.388.563 1.519.728.159.202.227.377.24.41.034.087.028.103.002-.03a14.432 14.432 0 01-.16-1.26c-.114-1.212-.22-3-.31-5.25C51.111 63.108 51 56.886 51 50h-4c0 6.921.112 13.2.294 17.758.091 2.273.2 4.146.326 5.466.061.65.131 1.22.216 1.652.039.2.1.47.2.728.047.118.15.358.343.602.164.209.696.794 1.621.794v-4zm1-23c0-6.886.112-13.108.291-17.598.09-2.25.196-4.038.31-5.25.06-.615.115-1.027.16-1.26.026-.133.032-.117-.002-.03-.013.033-.081.208-.24.41A1.937 1.937 0 0150 27v-4c-.925 0-1.457.585-1.621.794a2.377 2.377 0 00-.342.602 4.23 4.23 0 00-.201.728 18.006 18.006 0 00-.216 1.652c-.125 1.32-.235 3.193-.325 5.466C47.111 36.801 47 43.08 47 50h4zm-1-23c-.89 0-1.388-.563-1.519-.729-.159-.2-.227-.376-.24-.409-.034-.087-.028-.103-.002.03.045.233.1.645.16 1.26.114 1.212.22 3 .31 5.25.18 4.49.291 10.712.291 17.598h4c0-6.921-.112-13.2-.294-17.758-.091-2.273-.2-4.146-.326-5.466a17.62 17.62 0 00-.216-1.652c-.039-.2-.1-.47-.2-.728a2.377 2.377 0 00-.343-.602A2.063 2.063 0 0050 23v4z" mask="url(#ea)"/><path d="M64 50c0 6.754-1.645 12.82-4.25 17.163C57.13 71.527 53.652 74 50 74c-3.653 0-7.13-2.473-9.75-6.837C37.646 62.82 36 56.753 36 50c0-6.754 1.645-12.82 4.25-17.163C42.87 28.473 46.348 26 50 26c3.653 0 7.13 2.473 9.75 6.837C62.354 37.18 64 43.247 64 50z"/></g><defs><clipPath id="ea"><path d="M0 0h100v100H0z"/></clipPath></defs></svg><svg viewBox="0 0 100 100" id="doing4" xmlns="http://www.w3.org/2000/svg"><g clip-path="url(#fa)"><path d="M50 100.2c27.614 0 50-22.386 50-50S77.614.2 50 .2 0 22.586 0 50.2s22.386 50 50 50z"/><path d="M76 50c0 14.377-11.434 26-25.5 26S25 64.377 25 50s11.434-26 25.5-26S76 35.623 76 50zM50 34v18m9.798 5.657L50 52"/></g><defs><clipPath id="fa"><path d="M0 0h100v100H0z"/></clipPath></defs></svg><svg viewBox="0 0 100 100" id="doing4a" xmlns="http://www.w3.org/2000/svg"><g clip-path="url(#ga)"><path d="M50 100.2c27.614 0 50-22.386 50-50S77.614.2 50 .2 0 22.586 0 50.2s22.386 50 50 50z"/><path d="M74 50c0 13.274-10.54 24-23.5 24S27 63.274 27 50s10.54-24 23.5-24S74 36.726 74 50z"/><path d="M50 42c6.54 0 12.415.996 16.62 2.572 2.105.79 3.74 1.706 4.83 2.673C72.543 48.213 73 49.146 73 50c0 .854-.458 1.787-1.55 2.755-1.09.967-2.725 1.883-4.83 2.673C62.414 57.004 56.54 58 50 58c-6.54 0-12.415-.996-16.62-2.572-2.105-.79-3.74-1.706-4.83-2.673C27.457 51.787 27 50.854 27 50c0-.854.458-1.787 1.55-2.755 1.09-.967 2.725-1.883 4.83-2.673C37.586 42.996 43.46 42 50 42z"/><mask id="ga"><ellipse cx="50" cy="50" rx="1" ry="25"/></mask><path d="M49 50c0 6.886-.112 13.108-.291 17.598-.09 2.25-.196 4.038-.31 5.25a14.432 14.432 0 01-.16 1.26c-.026.133-.032.117.002.03.013-.033.081-.208.24-.41A1.937 1.937 0 0150 73v4c.925 0 1.457-.585 1.621-.794.194-.244.295-.484.342-.602a4.23 4.23 0 00.201-.728 17.71 17.71 0 00.216-1.652c.125-1.32.235-3.193.325-5.466C52.889 63.199 53 56.92 53 50h-4zm1 23c.89 0 1.388.563 1.519.728.159.202.227.377.24.41.034.087.028.103.002-.03a14.432 14.432 0 01-.16-1.26c-.114-1.212-.22-3-.31-5.25C51.111 63.108 51 56.886 51 50h-4c0 6.921.112 13.2.294 17.758.091 2.273.2 4.146.326 5.466.061.65.131 1.22.216 1.652.039.2.1.47.2.728.047.118.15.358.343.602.164.209.696.794 1.621.794v-4zm1-23c0-6.886.112-13.108.291-17.598.09-2.25.196-4.038.31-5.25.06-.615.115-1.027.16-1.26.026-.133.032-.117-.002-.03-.013.033-.081.208-.24.41A1.937 1.937 0 0150 27v-4c-.925 0-1.457.585-1.621.794a2.377 2.377 0 00-.342.602 4.23 4.23 0 00-.201.728 18.006 18.006 0 00-.216 1.652c-.125 1.32-.235 3.193-.325 5.466C47.111 36.801 47 43.08 47 50h4zm-1-23c-.89 0-1.388-.563-1.519-.729-.159-.2-.227-.376-.24-.409-.034-.087-.028-.103-.002.03.045.233.1.645.16 1.26.114 1.212.22 3 .31 5.25.18 4.49.291 10.712.291 17.598h4c0-6.921-.112-13.2-.294-17.758-.091-2.273-.2-4.146-.326-5.466a17.62 17.62 0 00-.216-1.652c-.039-.2-.1-.47-.2-.728a2.377 2.377 0 00-.343-.602A2.063 2.063 0 0050 23v4z" mask="url(#ga)"/><path d="M50 25c-4.104 0-7.874 2.766-10.607 7.322C36.67 36.86 35 43.084 35 50s1.67 13.14 4.393 17.678C42.126 72.234 45.896 75 50 75c4.104 0 7.874-2.766 10.607-7.322C63.33 63.14 65 56.916 65 50s-1.67-13.14-4.393-17.678C57.874 27.766 54.104 25 50 25zm0 2c3.202 0 6.39 2.18 8.893 6.352C61.383 37.502 63 43.409 63 50c0 6.591-1.617 12.497-4.107 16.648C56.39 70.82 53.202 73 50 73c-3.202 0-6.39-2.18-8.893-6.352C38.617 62.498 37 56.591 37 50c0-6.591 1.617-12.497 4.107-16.648C43.61 29.18 46.798 27 50 27z"/></g><defs><clipPath id="ga"><path d="M0 0h100v100H0z"/></clipPath></defs></svg><svg viewBox="0 0 18 12" id="left-arrow" xmlns="http://www.w3.org/2000/svg"><path fill-rule="evenodd" clip-rule="evenodd" d="M6.207 11.207a1 1 0 01-1.414 0l-4.5-4.5a1 1 0 010-1.414l4.5-4.5a1 1 0 011.414 1.414L3.414 5H17a1 1 0 110 2H3.414l2.793 2.793a1 1 0 010 1.414z"/></svg><svg viewBox="0 0 48 48" id="ok" xmlns="http://www.w3.org/2000/svg"><path d="M0 24C0 10.745 10.745 0 24 0s24 10.745 24 24-10.745 24-24 24S0 37.255 0 24z"/><path d="M26.596 29.44l3.587 3.463a1.769 1.769 0 010 2.566 1.926 1.926 0 01-2.657 0l-3.527-3.403-3.523 3.403a1.913 1.913 0 01-1.33.53 1.91 1.91 0 01-1.329-.53 1.77 1.77 0 010-2.566l3.587-3.463a12.281 12.281 0 01-3.726-1.489c-.878-.534-1.142-1.654-.589-2.502.552-.85 1.712-1.105 2.592-.57 2.626 1.594 6.01 1.595 8.638 0 .88-.535 2.04-.28 2.592.57.553.847.289 1.968-.59 2.502a12.263 12.263 0 01-3.725 1.49z"/><path fill-rule="evenodd" clip-rule="evenodd" d="M17.568 18.194c0 3.414 2.877 6.191 6.416 6.191 3.539 0 6.416-2.777 6.416-6.191 0-3.416-2.877-6.194-6.416-6.194-3.539 0-6.416 2.778-6.416 6.194zm9.072 0c0-1.415-1.191-2.564-2.656-2.564-1.464 0-2.657 1.15-2.657 2.564 0 1.413 1.193 2.563 2.657 2.563 1.465 0 2.656-1.15 2.656-2.563z"/></svg><svg viewBox="0 0 18 12" id="right-arrow" xmlns="http://www.w3.org/2000/svg"><path fill-rule="evenodd" clip-rule="evenodd" d="M11.793.793a1 1 0 011.414 0l4.5 4.5a1 1 0 010 1.414l-4.5 4.5a1 1 0 01-1.414-1.414L14.586 7H1a1 1 0 010-2h13.586l-2.793-2.793a1 1 0 010-1.414z"/></svg><svg viewBox="0 0 48 48" id="telegram" xmlns="http://www.w3.org/2000/svg"><path d="M24 48c13.255 0 24-10.745 24-24S37.255 0 24 0 0 10.745 0 24s10.745 24 24 24z"/><path d="M8.938 25.174c2.806-1.545 5.938-2.835 8.864-4.132 5.034-2.123 10.088-4.21 15.193-6.152.994-.331 2.778-.655 2.953.817-.095 2.084-.49 4.155-.76 6.226-.686 4.556-1.48 9.095-2.253 13.636-.267 1.512-2.161 2.295-3.373 1.327-2.913-1.968-5.849-3.916-8.725-5.93-.942-.957-.069-2.332.773-3.015 2.4-2.365 4.944-4.374 7.218-6.86.613-1.482-1.2-.234-1.797.149-3.285 2.263-6.49 4.665-9.952 6.655-1.77.973-3.831.141-5.6-.402-1.585-.657-3.908-1.318-2.54-2.319z"/><defs><linearGradient id="ka" x1="18.003" y1="2.002" x2="6.003" y2="30" gradientUnits="userSpaceOnUse"><stop stop-color="#37AEE2"/><stop offset="1" stop-color="#1E96C8"/></linearGradient></defs></svg><svg viewBox="0 0 48 48" id="telegram2" xmlns="http://www.w3.org/2000/svg"><path d="M48 24c0 13.255-10.745 24-24 24S0 37.255 0 24 10.745 0 24 0s24 10.745 24 24zm-31.928-2.198c-2.405 1.05-4.875 2.128-7.134 3.372-1.18.864.388 1.474 1.86 2.047.233.092.464.182.682.272.18.055.365.114.551.173 1.636.521 3.46 1.103 5.048.229 2.608-1.499 5.07-3.231 7.53-4.962.806-.568 1.611-1.135 2.422-1.693l.128-.083c.69-.447 2.243-1.454 1.669-.067-1.358 1.486-2.814 2.8-4.276 4.123-.986.891-1.976 1.785-2.942 2.738-.841.683-1.715 2.058-.773 3.015 2.17 1.52 4.374 3.001 6.576 4.483.717.482 1.434.964 2.149 1.447 1.212.968 3.107.185 3.373-1.328l.356-2.087c.658-3.844 1.316-7.69 1.897-11.548.079-.605.168-1.21.258-1.815.217-1.467.435-2.936.503-4.41-.175-1.473-1.96-1.15-2.953-.818-5.106 1.942-10.16 4.029-15.194 6.152-.57.253-1.148.505-1.73.76z"/></svg><svg viewBox="0 0 48 48" id="telegram3" xmlns="http://www.w3.org/2000/svg"><path d="M24 48c13.255 0 24-10.745 24-24S37.255 0 24 0 0 10.745 0 24s10.745 24 24 24z"/><path d="M8.938 25.174c2.806-1.545 5.938-2.835 8.864-4.132 5.034-2.123 10.088-4.21 15.193-6.152.994-.331 2.778-.655 2.953.817-.095 2.084-.49 4.155-.76 6.226-.686 4.556-1.48 9.095-2.253 13.636-.267 1.512-2.161 2.295-3.373 1.327-2.913-1.968-5.849-3.916-8.725-5.93-.942-.957-.069-2.332.773-3.015 2.4-2.365 4.944-4.374 7.218-6.86.613-1.482-1.2-.234-1.797.149-3.285 2.263-6.49 4.665-9.952 6.655-1.77.973-3.831.141-5.6-.402-1.585-.657-3.908-1.318-2.54-2.319z"/><defs><linearGradient id="ma" x1="18.003" y1="2.002" x2="6.003" y2="30" gradientUnits="userSpaceOnUse"><stop stop-color="#37AEE2"/><stop offset="1" stop-color="#1E96C8"/></linearGradient></defs></svg><svg viewBox="0 0 48 48" id="telegram_copy" xmlns="http://www.w3.org/2000/svg"><path d="M48 24c0 13.255-10.745 24-24 24S0 37.255 0 24 10.745 0 24 0s24 10.745 24 24zm-31.928-2.198c-2.405 1.05-4.875 2.128-7.134 3.372-1.18.864.388 1.474 1.86 2.047.233.092.464.182.682.272.18.055.365.114.551.173 1.636.521 3.46 1.103 5.048.229 2.608-1.499 5.07-3.231 7.53-4.962.806-.568 1.611-1.135 2.422-1.693l.128-.083c.69-.447 2.243-1.454 1.669-.067-1.358 1.486-2.814 2.8-4.276 4.123-.986.891-1.976 1.785-2.942 2.738-.841.683-1.715 2.058-.773 3.015 2.17 1.52 4.374 3.001 6.576 4.483.717.482 1.434.964 2.149 1.447 1.212.968 3.107.185 3.373-1.328l.356-2.087c.658-3.844 1.316-7.69 1.897-11.548.079-.605.168-1.21.258-1.815.217-1.467.435-2.936.503-4.41-.175-1.473-1.96-1.15-2.953-.818-5.106 1.942-10.16 4.029-15.194 6.152-.57.253-1.148.505-1.73.76z"/></svg></svg>